<?xml version="1.0" encoding="UTF-8"?>
<!DOCTYPE svg PUBLIC "-//W3C//DTD SVG 1.1//EN" "http://www.w3.org/Graphics/SVG/1.1/DTD/svg11.dtd">
<svg xmlns="http://www.w3.org/2000/svg" version="1.1" width="128px" height="128px" style="shape-rendering:geometricPrecision; text-rendering:geometricPrecision; image-rendering:optimizeQuality; fill-rule:evenodd; clip-rule:evenodd" xmlns:xlink="http://www.w3.org/1999/xlink">
<g><path style="opacity:0.223" fill="#000000" d="M 11.5,2.5 C 46.1683,2.33335 80.8349,2.50002 115.5,3C 120.4,4.90183 123.567,8.40183 125,13.5C 125.667,46.8333 125.667,80.1667 125,113.5C 124.036,117.468 121.869,120.635 118.5,123C 82.8935,124.647 47.2269,124.98 11.5,124C 6.59953,122.098 3.43286,118.598 2,113.5C 1.33333,80.1667 1.33333,46.8333 2,13.5C 3.62662,8.38182 6.79329,4.71515 11.5,2.5 Z"/></g>
<g><path style="opacity:1" fill="#424242" d="M 39.5,5.5 C 39.3334,19.504 39.5001,33.504 40,47.5C 50.7592,48.1613 61.5926,48.4946 72.5,48.5C 83.4074,48.4946 94.2408,48.1613 105,47.5C 105.5,33.504 105.667,19.504 105.5,5.5C 115.999,3.66804 120.666,8.00137 119.5,18.5C 118.698,19.9516 118.198,21.6183 118,23.5C 117.667,32.1667 117.333,40.8333 117,49.5C 113.333,52.5 109.667,55.5 106,58.5C 105.83,67.676 105.33,76.676 104.5,85.5C 104.5,83.5 104.5,81.5 104.5,79.5C 104.5,78.8333 104.5,78.1667 104.5,77.5C 104.5,75.5 104.5,73.5 104.5,71.5C 104.5,70.8333 104.5,70.1667 104.5,69.5C 104.5,67.5 104.5,65.5 104.5,63.5C 104.5,62.8333 104.5,62.1667 104.5,61.5C 104.5,60.1667 104.5,58.8333 104.5,57.5C 77.1667,57.5 49.8333,57.5 22.5,57.5C 22.5,58.8333 22.5,60.1667 22.5,61.5C 22.5,62.1667 22.5,62.8333 22.5,63.5C 22.5,65.5 22.5,67.5 22.5,69.5C 22.5,70.1667 22.5,70.8333 22.5,71.5C 22.5,73.5 22.5,75.5 22.5,77.5C 22.5,78.1667 22.5,78.8333 22.5,79.5C 22.5,81.5 22.5,83.5 22.5,85.5C 22.5,86.1667 22.5,86.8333 22.5,87.5C 22.5,89.5 22.5,91.5 22.5,93.5C 22.5,94.1667 22.5,94.8333 22.5,95.5C 22.5,97.5 22.5,99.5 22.5,101.5C 22.5,102.833 22.5,104.167 22.5,105.5C 22.5,106.5 22.5,107.5 22.5,108.5C 19.8534,107.927 17.1867,107.26 14.5,106.5C 16.7427,105.526 19.076,105.192 21.5,105.5C 21.6666,89.8298 21.4999,74.1631 21,58.5C 17.3333,55.5 13.6667,52.5 10,49.5C 9.66667,40.8333 9.33333,32.1667 9,23.5C 8.80192,21.6183 8.30192,19.9516 7.5,18.5C 6.5021,13.4645 7.83543,9.29784 11.5,6C 20.8274,5.50021 30.1607,5.33355 39.5,5.5 Z"/></g>
<g><path style="opacity:1" fill="#e6e6e6" d="M 39.5,5.5 C 61.5,5.5 83.5,5.5 105.5,5.5C 105.667,19.504 105.5,33.504 105,47.5C 94.2408,48.1613 83.4074,48.4946 72.5,48.5C 61.5926,48.4946 50.7592,48.1613 40,47.5C 39.5001,33.504 39.3334,19.504 39.5,5.5 Z"/></g>
<g><path style="opacity:1" fill="#888888" d="M 78.5,11.5 C 78.5,22.5 78.5,33.5 78.5,44.5C 84.1667,44.5 89.8333,44.5 95.5,44.5C 95.5,33.5 95.5,22.5 95.5,11.5C 96.4948,22.6544 96.8281,33.9877 96.5,45.5C 90.1667,45.5 83.8333,45.5 77.5,45.5C 77.1719,33.9877 77.5052,22.6544 78.5,11.5 Z"/></g>
<g><path style="opacity:1" fill="#444444" d="M 78.5,11.5 C 84.1667,11.5 89.8333,11.5 95.5,11.5C 95.5,22.5 95.5,33.5 95.5,44.5C 89.8333,44.5 84.1667,44.5 78.5,44.5C 78.5,33.5 78.5,22.5 78.5,11.5 Z"/></g>
<g><path style="opacity:1" fill="#393a3a" d="M 7.5,18.5 C 8.30192,19.9516 8.80192,21.6183 9,23.5C 9.33333,32.1667 9.66667,40.8333 10,49.5C 13.6667,52.5 17.3333,55.5 21,58.5C 21.4999,74.1631 21.6666,89.8298 21.5,105.5C 19.076,105.192 16.7427,105.526 14.5,106.5C 17.1867,107.26 19.8534,107.927 22.5,108.5C 22.5,109.167 22.5,109.833 22.5,110.5C 18.8183,110.665 15.1516,110.499 11.5,110C 9.26669,107.887 7.93335,105.387 7.5,102.5C 7.5,74.5 7.5,46.5 7.5,18.5 Z"/></g>
<g><path style="opacity:1" fill="#393939" d="M 119.5,18.5 C 119.5,46.5 119.5,74.5 119.5,102.5C 119.067,105.387 117.733,107.887 115.5,110C 111.848,110.499 108.182,110.665 104.5,110.5C 104.5,109.833 104.5,109.167 104.5,108.5C 104.5,107.5 104.5,106.5 104.5,105.5C 104.5,104.167 104.5,102.833 104.5,101.5C 104.5,99.5 104.5,97.5 104.5,95.5C 104.5,94.8333 104.5,94.1667 104.5,93.5C 104.5,91.5 104.5,89.5 104.5,87.5C 104.5,86.8333 104.5,86.1667 104.5,85.5C 105.33,76.676 105.83,67.676 106,58.5C 109.667,55.5 113.333,52.5 117,49.5C 117.333,40.8333 117.667,32.1667 118,23.5C 118.198,21.6183 118.698,19.9516 119.5,18.5 Z"/></g>
<g><path style="opacity:1" fill="#fbfbfb" d="M 104.5,61.5 C 77.1667,61.5 49.8333,61.5 22.5,61.5C 22.5,60.1667 22.5,58.8333 22.5,57.5C 49.8333,57.5 77.1667,57.5 104.5,57.5C 104.5,58.8333 104.5,60.1667 104.5,61.5 Z"/></g>
<g><path style="opacity:1" fill="#b1c6df" d="M 22.5,61.5 C 49.8333,61.5 77.1667,61.5 104.5,61.5C 104.5,62.1667 104.5,62.8333 104.5,63.5C 77.1667,63.5 49.8333,63.5 22.5,63.5C 22.5,62.8333 22.5,62.1667 22.5,61.5 Z"/></g>
<g><path style="opacity:1" fill="#fefffe" d="M 22.5,63.5 C 49.8333,63.5 77.1667,63.5 104.5,63.5C 104.5,65.5 104.5,67.5 104.5,69.5C 77.1667,69.5 49.8333,69.5 22.5,69.5C 22.5,67.5 22.5,65.5 22.5,63.5 Z"/></g>
<g><path style="opacity:1" fill="#b0c6df" d="M 22.5,69.5 C 49.8333,69.5 77.1667,69.5 104.5,69.5C 104.5,70.1667 104.5,70.8333 104.5,71.5C 77.1667,71.5 49.8333,71.5 22.5,71.5C 22.5,70.8333 22.5,70.1667 22.5,69.5 Z"/></g>
<g><path style="opacity:1" fill="#fefffe" d="M 22.5,71.5 C 49.8333,71.5 77.1667,71.5 104.5,71.5C 104.5,73.5 104.5,75.5 104.5,77.5C 77.1667,77.5 49.8333,77.5 22.5,77.5C 22.5,75.5 22.5,73.5 22.5,71.5 Z"/></g>
<g><path style="opacity:1" fill="#afc5df" d="M 22.5,77.5 C 49.8333,77.5 77.1667,77.5 104.5,77.5C 104.5,78.1667 104.5,78.8333 104.5,79.5C 77.1667,79.5 49.8333,79.5 22.5,79.5C 22.5,78.8333 22.5,78.1667 22.5,77.5 Z"/></g>
<g><path style="opacity:1" fill="#fefffe" d="M 22.5,79.5 C 49.8333,79.5 77.1667,79.5 104.5,79.5C 104.5,81.5 104.5,83.5 104.5,85.5C 77.1667,85.5 49.8333,85.5 22.5,85.5C 22.5,83.5 22.5,81.5 22.5,79.5 Z"/></g>
<g><path style="opacity:1" fill="#afc4de" d="M 22.5,85.5 C 49.8333,85.5 77.1667,85.5 104.5,85.5C 104.5,86.1667 104.5,86.8333 104.5,87.5C 77.1667,87.5 49.8333,87.5 22.5,87.5C 22.5,86.8333 22.5,86.1667 22.5,85.5 Z"/></g>
<g><path style="opacity:1" fill="#fefffe" d="M 22.5,87.5 C 49.8333,87.5 77.1667,87.5 104.5,87.5C 104.5,89.5 104.5,91.5 104.5,93.5C 77.1667,93.5 49.8333,93.5 22.5,93.5C 22.5,91.5 22.5,89.5 22.5,87.5 Z"/></g>
<g><path style="opacity:1" fill="#121212" d="M 10.5,92.5 C 13.1667,92.5 15.8333,92.5 18.5,92.5C 18.5,94.5 18.5,96.5 18.5,98.5C 15.8333,98.5 13.1667,98.5 10.5,98.5C 10.5,96.5 10.5,94.5 10.5,92.5 Z"/></g>
<g><path style="opacity:1" fill="#aec4de" d="M 22.5,93.5 C 49.8333,93.5 77.1667,93.5 104.5,93.5C 104.5,94.1667 104.5,94.8333 104.5,95.5C 77.1667,95.5 49.8333,95.5 22.5,95.5C 22.5,94.8333 22.5,94.1667 22.5,93.5 Z"/></g>
<g><path style="opacity:1" fill="#fdfdfe" d="M 22.5,95.5 C 49.8333,95.5 77.1667,95.5 104.5,95.5C 104.5,97.5 104.5,99.5 104.5,101.5C 77.1667,101.5 49.8333,101.5 22.5,101.5C 22.5,99.5 22.5,97.5 22.5,95.5 Z"/></g>
<g><path style="opacity:1" fill="#004698" d="M 22.5,101.5 C 49.8333,101.5 77.1667,101.5 104.5,101.5C 104.5,102.833 104.5,104.167 104.5,105.5C 77.1667,105.5 49.8333,105.5 22.5,105.5C 22.5,104.167 22.5,102.833 22.5,101.5 Z"/></g>
<g><path style="opacity:1" fill="#11509a" d="M 22.5,105.5 C 49.8333,105.5 77.1667,105.5 104.5,105.5C 104.5,106.5 104.5,107.5 104.5,108.5C 77.1667,108.5 49.8333,108.5 22.5,108.5C 22.5,107.5 22.5,106.5 22.5,105.5 Z"/></g>
<g><path style="opacity:1" fill="#00397e" d="M 22.5,108.5 C 49.8333,108.5 77.1667,108.5 104.5,108.5C 104.5,109.167 104.5,109.833 104.5,110.5C 77.1667,110.5 49.8333,110.5 22.5,110.5C 22.5,109.833 22.5,109.167 22.5,108.5 Z"/></g>
<g><path style="opacity:1" fill="#222222" d="M 119.5,102.5 C 121.5,114.5 116.5,119.5 104.5,117.5C 104.5,116.833 104.5,116.167 104.5,115.5C 104.5,114.833 104.5,114.167 104.5,113.5C 104.5,112.5 104.5,111.5 104.5,110.5C 108.182,110.665 111.848,110.499 115.5,110C 117.733,107.887 119.067,105.387 119.5,102.5 Z"/></g>
<g><path style="opacity:1" fill="#00295a" d="M 22.5,110.5 C 49.8333,110.5 77.1667,110.5 104.5,110.5C 104.5,111.5 104.5,112.5 104.5,113.5C 77.1667,113.5 49.8333,113.5 22.5,113.5C 22.5,112.5 22.5,111.5 22.5,110.5 Z"/></g>
<g><path style="opacity:0.986" fill="#212121" d="M 7.5,102.5 C 7.93335,105.387 9.26669,107.887 11.5,110C 15.1516,110.499 18.8183,110.665 22.5,110.5C 22.5,111.5 22.5,112.5 22.5,113.5C 22.5,114.167 22.5,114.833 22.5,115.5C 22.5,116.167 22.5,116.833 22.5,117.5C 10.5,119.5 5.5,114.5 7.5,102.5 Z"/></g>
<g><path style="opacity:1" fill="#0a3a73" d="M 22.5,113.5 C 49.8333,113.5 77.1667,113.5 104.5,113.5C 104.5,114.167 104.5,114.833 104.5,115.5C 77.1667,115.5 49.8333,115.5 22.5,115.5C 22.5,114.833 22.5,114.167 22.5,113.5 Z"/></g>
<g><path style="opacity:1" fill="#00295b" d="M 22.5,115.5 C 49.8333,115.5 77.1667,115.5 104.5,115.5C 104.5,116.167 104.5,116.833 104.5,117.5C 77.1667,117.5 49.8333,117.5 22.5,117.5C 22.5,116.833 22.5,116.167 22.5,115.5 Z"/></g>
</svg>
